<svg xmlns="http://www.w3.org/2000/svg" width="1500" height="950" viewBox="0 0 1500 950">
<defs>
<marker id="arrow" markerWidth="10" markerHeight="10" refX="8" refY="3" orient="auto" markerUnits="strokeWidth">
<path d="M0,0 L0,6 L9,3 z" fill="#334155" />
</marker>
</defs>
<rect width="1500" height="950" fill="#ffffff"/>
<line x1="165.0" y1="130.0" x2="165.0" y2="670.0" stroke="#334155" stroke-width="1.5"/>
<line x1="165.0" y1="670.0" x2="1225.0" y2="670.0" stroke="#334155" stroke-width="1.5"/>
<line x1="165.0" y1="535.0" x2="1225.0" y2="535.0" stroke="#cbd5e1" stroke-width="0.8"/>
<line x1="165.0" y1="400.0" x2="1225.0" y2="400.0" stroke="#cbd5e1" stroke-width="0.8"/>
<line x1="165.0" y1="265.0" x2="1225.0" y2="265.0" stroke="#cbd5e1" stroke-width="0.8"/>
<line x1="165.0" y1="130.0" x2="1225.0" y2="130.0" stroke="#cbd5e1" stroke-width="0.8"/>
<text x="103.0" y="400.0" font-family="Arial, sans-serif" font-size="20" font-weight="700" text-anchor="middle" fill="#0f172a" transform="rotate(-90 103.0 400.0)">Correctness Drop (%)</text>
<text x="695.0" y="748.0" font-family="Arial, sans-serif" font-size="20" font-weight="700" text-anchor="middle" fill="#0f172a">Configuration</text>
<rect x="247.5" y="475.1" width="100.0" height="194.9" rx="2" fill="#2563eb" stroke="#2563eb" stroke-width="1.5"/>
<text x="297.5" y="455.1" font-family="Arial, sans-serif" font-size="26" font-weight="700" text-anchor="middle" fill="#0f172a">-5.3%</text>
<text x="297.5" y="719.0" font-family="Arial, sans-serif" font-size="22" font-weight="700" text-anchor="middle" fill="#0f172a">No</text>
<text x="297.5" y="746.5" font-family="Arial, sans-serif" font-size="22" font-weight="700" text-anchor="middle" fill="#0f172a">Router</text>
<rect x="512.5" y="353.9" width="100.0" height="316.1" rx="2" fill="#2563eb" stroke="#2563eb" stroke-width="1.5"/>
<text x="562.5" y="333.9" font-family="Arial, sans-serif" font-size="26" font-weight="700" text-anchor="middle" fill="#0f172a">-8.6%</text>
<text x="562.5" y="719.0" font-family="Arial, sans-serif" font-size="22" font-weight="700" text-anchor="middle" fill="#0f172a">Dense</text>
<text x="562.5" y="746.5" font-family="Arial, sans-serif" font-size="22" font-weight="700" text-anchor="middle" fill="#0f172a">Only</text>
<rect x="777.5" y="220.0" width="100.0" height="450.0" rx="2" fill="#dc2626" stroke="#dc2626" stroke-width="1.5"/>
<text x="827.5" y="200.0" font-family="Arial, sans-serif" font-size="26" font-weight="700" text-anchor="middle" fill="#0f172a">-12.2%</text>
<text x="827.5" y="719.0" font-family="Arial, sans-serif" font-size="22" font-weight="700" text-anchor="middle" fill="#0f172a">Hybrid</text>
<text x="827.5" y="746.5" font-family="Arial, sans-serif" font-size="22" font-weight="700" text-anchor="middle" fill="#0f172a">Disabled</text>
<rect x="1042.5" y="449.8" width="100.0" height="220.2" rx="2" fill="#2563eb" stroke="#2563eb" stroke-width="1.5"/>
<text x="1092.5" y="429.8" font-family="Arial, sans-serif" font-size="26" font-weight="700" text-anchor="middle" fill="#0f172a">-6.0%</text>
<text x="1092.5" y="719.0" font-family="Arial, sans-serif" font-size="22" font-weight="700" text-anchor="middle" fill="#0f172a">Recursive</text>
<text x="1092.5" y="746.5" font-family="Arial, sans-serif" font-size="22" font-weight="700" text-anchor="middle" fill="#0f172a">Chunking</text>
<polyline points="297.5,475.1 562.5,353.9 827.5,220.0 1092.5,449.8" fill="none" stroke="#d97706" stroke-width="2.5"/>
<circle cx="297.5" cy="475.1" r="7.0" fill="#d97706" stroke="#ffffff" stroke-width="1"/>
<circle cx="562.5" cy="353.9" r="7.0" fill="#d97706" stroke="#ffffff" stroke-width="1"/>
<circle cx="827.5" cy="220.0" r="7.0" fill="#d97706" stroke="#ffffff" stroke-width="1"/>
<circle cx="1092.5" cy="449.8" r="7.0" fill="#d97706" stroke="#ffffff" stroke-width="1"/>
<rect x="335.0" y="690.0" width="16.0" height="16.0" rx="2" fill="#2563eb" stroke="#2563eb" stroke-width="1.5"/>
<text x="357.0" y="703.0" font-family="Arial, sans-serif" font-size="11" font-weight="400" text-anchor="start" fill="#0f172a">Correctness drop</text>
<rect x="427.0" y="690.0" width="16.0" height="16.0" rx="2" fill="#dc2626" stroke="#dc2626" stroke-width="1.5"/>
<text x="449.0" y="703.0" font-family="Arial, sans-serif" font-size="11" font-weight="400" text-anchor="start" fill="#0f172a">Largest drop</text>
<rect x="519.0" y="690.0" width="16.0" height="16.0" rx="2" fill="#d97706" stroke="#d97706" stroke-width="1.5"/>
<text x="541.0" y="703.0" font-family="Arial, sans-serif" font-size="11" font-weight="400" text-anchor="start" fill="#0f172a">Drop trend</text>
</svg>
