<svg xmlns="http://www.w3.org/2000/svg" width="820" height="460" viewBox="0 0 820 460">
<defs>
<marker id="arrow" markerWidth="10" markerHeight="10" refX="8" refY="3" orient="auto" markerUnits="strokeWidth">
<path d="M0,0 L0,6 L9,3 z" fill="#334155" />
</marker>
</defs>
<rect width="820" height="460" fill="#ffffff"/>
<line x1="85.0" y1="70.0" x2="85.0" y2="360.0" stroke="#334155" stroke-width="1.5"/>
<line x1="85.0" y1="360.0" x2="735.0" y2="360.0" stroke="#334155" stroke-width="1.5"/>
<line x1="85.0" y1="287.5" x2="735.0" y2="287.5" stroke="#cbd5e1" stroke-width="0.8"/>
<line x1="85.0" y1="215.0" x2="735.0" y2="215.0" stroke="#cbd5e1" stroke-width="0.8"/>
<line x1="85.0" y1="142.5" x2="735.0" y2="142.5" stroke="#cbd5e1" stroke-width="0.8"/>
<line x1="85.0" y1="70.0" x2="735.0" y2="70.0" stroke="#cbd5e1" stroke-width="0.8"/>
<text x="37.0" y="215.0" font-family="Arial, sans-serif" font-size="12" font-weight="600" text-anchor="middle" fill="#0f172a" transform="rotate(-90 37.0 215.0)">Correctness Drop (%)</text>
<text x="410.0" y="418.0" font-family="Arial, sans-serif" font-size="12" font-weight="600" text-anchor="middle" fill="#0f172a">Configuration</text>
<rect x="123.8" y="262.8" width="85.0" height="97.2" rx="2" fill="#2563eb" stroke="#2563eb" stroke-width="1.5"/>
<text x="166.2" y="254.8" font-family="Arial, sans-serif" font-size="11" font-weight="600" text-anchor="middle" fill="#0f172a">-5.8%</text>
<text x="166.2" y="388.0" font-family="Arial, sans-serif" font-size="11" font-weight="400" text-anchor="middle" fill="#0f172a">No Router</text>
<rect x="286.2" y="216.1" width="85.0" height="143.9" rx="2" fill="#2563eb" stroke="#2563eb" stroke-width="1.5"/>
<text x="328.8" y="208.1" font-family="Arial, sans-serif" font-size="11" font-weight="600" text-anchor="middle" fill="#0f172a">-8.6%</text>
<text x="328.8" y="388.0" font-family="Arial, sans-serif" font-size="11" font-weight="400" text-anchor="middle" fill="#0f172a">Dense Only</text>
<rect x="448.8" y="118.3" width="85.0" height="241.7" rx="2" fill="#dc2626" stroke="#dc2626" stroke-width="1.5"/>
<text x="491.2" y="110.3" font-family="Arial, sans-serif" font-size="11" font-weight="600" text-anchor="middle" fill="#0f172a">-14.5%</text>
<text x="491.2" y="388.0" font-family="Arial, sans-serif" font-size="11" font-weight="400" text-anchor="middle" fill="#0f172a">Hybrid Disabled</text>
<rect x="611.2" y="255.2" width="85.0" height="104.8" rx="2" fill="#2563eb" stroke="#2563eb" stroke-width="1.5"/>
<text x="653.8" y="247.2" font-family="Arial, sans-serif" font-size="11" font-weight="600" text-anchor="middle" fill="#0f172a">-6.3%</text>
<text x="653.8" y="388.0" font-family="Arial, sans-serif" font-size="11" font-weight="400" text-anchor="middle" fill="#0f172a">Recursive Chunking</text>
</svg>
