<svg xmlns="http://www.w3.org/2000/svg" width="860" height="540" viewBox="0 0 860 540">
<defs>
<marker id="arrow" markerWidth="10" markerHeight="10" refX="8" refY="3" orient="auto" markerUnits="strokeWidth">
<path d="M0,0 L0,6 L9,3 z" fill="#334155" />
</marker>
</defs>
<rect width="860" height="540" fill="#ffffff"/>
<line x1="80.0" y1="90.0" x2="80.0" y2="410.0" stroke="#334155" stroke-width="1.5"/>
<line x1="80.0" y1="410.0" x2="760.0" y2="410.0" stroke="#334155" stroke-width="1.5"/>
<line x1="80.0" y1="330.0" x2="760.0" y2="330.0" stroke="#cbd5e1" stroke-width="0.8"/>
<line x1="80.0" y1="250.0" x2="760.0" y2="250.0" stroke="#cbd5e1" stroke-width="0.8"/>
<line x1="80.0" y1="170.0" x2="760.0" y2="170.0" stroke="#cbd5e1" stroke-width="0.8"/>
<line x1="80.0" y1="90.0" x2="760.0" y2="90.0" stroke="#cbd5e1" stroke-width="0.8"/>
<text x="32.0" y="250.0" font-family="Arial, sans-serif" font-size="12" font-weight="600" text-anchor="middle" fill="#0f172a" transform="rotate(-90 32.0 250.0)">Quality Score</text>
<text x="420.0" y="468.0" font-family="Arial, sans-serif" font-size="12" font-weight="600" text-anchor="middle" fill="#0f172a">RAG Version</text>
<rect x="139.3" y="148.9" width="34.0" height="261.1" rx="3" fill="#2563eb" stroke="#2563eb" stroke-width="1.5"/>
<text x="156.3" y="140.9" font-family="Arial, sans-serif" font-size="10" font-weight="400" text-anchor="middle" fill="#0f172a">0.816</text>
<rect x="213.3" y="141.6" width="34.0" height="268.4" rx="3" fill="#0f766e" stroke="#0f766e" stroke-width="1.5"/>
<text x="230.3" y="133.6" font-family="Arial, sans-serif" font-size="10" font-weight="400" text-anchor="middle" fill="#0f172a">0.839</text>
<text x="193.3" y="438.0" font-family="Arial, sans-serif" font-size="12" font-weight="600" text-anchor="middle" fill="#0f172a">V1</text>
<rect x="366.0" y="125.9" width="34.0" height="284.1" rx="3" fill="#2563eb" stroke="#2563eb" stroke-width="1.5"/>
<text x="383.0" y="117.9" font-family="Arial, sans-serif" font-size="10" font-weight="400" text-anchor="middle" fill="#0f172a">0.888</text>
<rect x="440.0" y="136.7" width="34.0" height="273.3" rx="3" fill="#0f766e" stroke="#0f766e" stroke-width="1.5"/>
<text x="457.0" y="128.7" font-family="Arial, sans-serif" font-size="10" font-weight="400" text-anchor="middle" fill="#0f172a">0.854</text>
<text x="420.0" y="438.0" font-family="Arial, sans-serif" font-size="12" font-weight="600" text-anchor="middle" fill="#0f172a">V2</text>
<rect x="592.7" y="121.9" width="34.0" height="288.1" rx="3" fill="#2563eb" stroke="#2563eb" stroke-width="1.5"/>
<text x="609.7" y="113.9" font-family="Arial, sans-serif" font-size="10" font-weight="400" text-anchor="middle" fill="#0f172a">0.900</text>
<rect x="666.7" y="139.1" width="34.0" height="270.9" rx="3" fill="#0f766e" stroke="#0f766e" stroke-width="1.5"/>
<text x="683.7" y="131.1" font-family="Arial, sans-serif" font-size="10" font-weight="400" text-anchor="middle" fill="#0f172a">0.847</text>
<text x="646.7" y="438.0" font-family="Arial, sans-serif" font-size="12" font-weight="600" text-anchor="middle" fill="#0f172a">V3</text>
<circle cx="193.3" cy="222.9" r="5.0" fill="#d97706" stroke="#ffffff" stroke-width="1"/>
<text x="193.3" y="197.3" font-family="Arial, sans-serif" font-size="10" font-weight="400" text-anchor="middle" fill="#0f172a">221 ms</text>
<circle cx="420.0" cy="173.0" r="5.0" fill="#d97706" stroke="#ffffff" stroke-width="1"/>
<text x="420.0" y="147.4" font-family="Arial, sans-serif" font-size="10" font-weight="400" text-anchor="middle" fill="#0f172a">280 ms</text>
<circle cx="646.7" cy="205.5" r="5.0" fill="#d97706" stroke="#ffffff" stroke-width="1"/>
<text x="646.7" y="179.9" font-family="Arial, sans-serif" font-size="10" font-weight="400" text-anchor="middle" fill="#0f172a">241 ms</text>
<polyline points="193.3,222.9 420.0,173.0 646.7,205.5" fill="none" stroke="#d97706" stroke-width="2.5"/>
<rect x="297.0" y="500.0" width="16.0" height="16.0" rx="2" fill="#2563eb" stroke="#2563eb" stroke-width="1.5"/>
<text x="319.0" y="513.0" font-family="Arial, sans-serif" font-size="11" font-weight="400" text-anchor="start" fill="#0f172a">Precision</text>
<rect x="389.0" y="500.0" width="16.0" height="16.0" rx="2" fill="#0f766e" stroke="#0f766e" stroke-width="1.5"/>
<text x="411.0" y="513.0" font-family="Arial, sans-serif" font-size="11" font-weight="400" text-anchor="start" fill="#0f172a">Recall</text>
<rect x="481.0" y="500.0" width="16.0" height="16.0" rx="2" fill="#d97706" stroke="#d97706" stroke-width="1.5"/>
<text x="503.0" y="513.0" font-family="Arial, sans-serif" font-size="11" font-weight="400" text-anchor="start" fill="#0f172a">Latency</text>
</svg>
