<svg xmlns="http://www.w3.org/2000/svg" width="840" height="540" viewBox="0 0 840 540">
<defs>
<marker id="arrow" markerWidth="10" markerHeight="10" refX="8" refY="3" orient="auto" markerUnits="strokeWidth">
<path d="M0,0 L0,6 L9,3 z" fill="#334155" />
</marker>
</defs>
<rect width="840" height="540" fill="#ffffff"/>
<rect x="330.0" y="30.0" width="180.0" height="50.0" rx="6" fill="#f8fafc" stroke="#334155" stroke-width="1.5"/>
<text x="420.0" y="60.0" font-family="Arial, sans-serif" font-size="14" font-weight="600" text-anchor="middle" fill="#0f172a">User Query</text>
<rect x="330.0" y="120.0" width="180.0" height="50.0" rx="6" fill="#eff6ff" stroke="#2563eb" stroke-width="1.5"/>
<text x="420.0" y="150.0" font-family="Arial, sans-serif" font-size="14" font-weight="600" text-anchor="middle" fill="#0f172a">Adaptive Router</text>
<rect x="90.0" y="220.0" width="180.0" height="60.0" rx="6" fill="#f8fafc" stroke="#334155" stroke-width="1.5"/>
<text x="180.0" y="255.0" font-family="Arial, sans-serif" font-size="14" font-weight="600" text-anchor="middle" fill="#0f172a">RAG Pipeline</text>
<rect x="330.0" y="220.0" width="180.0" height="60.0" rx="6" fill="#f8fafc" stroke="#334155" stroke-width="1.5"/>
<text x="420.0" y="255.0" font-family="Arial, sans-serif" font-size="14" font-weight="600" text-anchor="middle" fill="#0f172a">SQL Pipeline</text>
<rect x="570.0" y="220.0" width="180.0" height="60.0" rx="6" fill="#f8fafc" stroke="#334155" stroke-width="1.5"/>
<text x="660.0" y="255.0" font-family="Arial, sans-serif" font-size="14" font-weight="600" text-anchor="middle" fill="#0f172a">HYBRID Handler</text>
<rect x="330.0" y="340.0" width="180.0" height="55.0" rx="6" fill="#eff6ff" stroke="#2563eb" stroke-width="1.5"/>
<text x="420.0" y="372.5" font-family="Arial, sans-serif" font-size="14" font-weight="600" text-anchor="middle" fill="#0f172a">Fusion Layer</text>
<rect x="330.0" y="450.0" width="180.0" height="50.0" rx="6" fill="#f8fafc" stroke="#334155" stroke-width="1.5"/>
<text x="420.0" y="480.0" font-family="Arial, sans-serif" font-size="14" font-weight="600" text-anchor="middle" fill="#0f172a">Grounded Answer</text>
<line x1="420.0" y1="80.0" x2="420.0" y2="120.0" stroke="#334155" stroke-width="1.8" marker-end="url(#arrow)"/>
<line x1="420.0" y1="170.0" x2="180.0" y2="220.0" stroke="#334155" stroke-width="1.8" marker-end="url(#arrow)"/>
<line x1="420.0" y1="170.0" x2="420.0" y2="220.0" stroke="#334155" stroke-width="1.8" marker-end="url(#arrow)"/>
<line x1="420.0" y1="170.0" x2="660.0" y2="220.0" stroke="#334155" stroke-width="1.8" marker-end="url(#arrow)"/>
<line x1="180.0" y1="280.0" x2="420.0" y2="340.0" stroke="#334155" stroke-width="1.8" marker-end="url(#arrow)"/>
<line x1="420.0" y1="280.0" x2="420.0" y2="340.0" stroke="#334155" stroke-width="1.8" marker-end="url(#arrow)"/>
<line x1="660.0" y1="280.0" x2="420.0" y2="340.0" stroke="#334155" stroke-width="1.8" marker-end="url(#arrow)"/>
<line x1="420.0" y1="395.0" x2="420.0" y2="450.0" stroke="#334155" stroke-width="1.8" marker-end="url(#arrow)"/>
</svg>
